<svg id="logo_Image" data-name="logo Image" xmlns="http://www.w3.org/2000/svg" viewBox="0 0 186.25 153.92"><defs><style>.cls-1{fill:#202020;}.cls-2{fill:#fff;}</style></defs><title>Artboard 1</title><path class="cls-1" d="M74.86,84.67a2.07,2.07,0,0,0,1.76,2.4,4.29,4.29,0,0,0,2.65-.44,23.81,23.81,0,0,0,3-1.9,26.61,26.61,0,0,1,4.45-2.64,8.44,8.44,0,0,1,8,.41,1.59,1.59,0,0,0,1.9,0,8.36,8.36,0,0,1,8.12-.44,26.47,26.47,0,0,1,4.32,2.57,23.59,23.59,0,0,0,3.17,2,4.13,4.13,0,0,0,2.51.43,2.06,2.06,0,0,0,1.84-2.46,2.11,2.11,0,0,0-2.35-2c-.22,0-.45.19-.69,0a3.08,3.08,0,0,1,4.51-.1,4.53,4.53,0,0,1,1.26,4.1,7.53,7.53,0,0,1-6.74,6.16,21.47,21.47,0,0,1-16.4-4.2l-.48-.33c-4.24,3.52-9.22,4.79-14.6,4.77a10.45,10.45,0,0,1-5.51-1.39,7.09,7.09,0,0,1-3.46-4.89A4.74,4.74,0,0,1,73,83.08,3.24,3.24,0,0,1,78,82.67C76,82.51,75,83.15,74.86,84.67Z"/><path d="M132.4,84.93C130,96.37,123.33,104.37,112.64,109A60.14,60.14,0,0,1,97,113.28c-9,1.3-18.07,1.16-27.14.66-2.29-.12-4.59-.25-6.87-.57-.78-.11-1-.43-.91-1.11,0-.33,0-.67,0-1V50.74h7.28v54.48c0,.33,0,.67,0,1-.07.71.16,1,.94,1,6.57.18,13.14.51,19.71.55A44.48,44.48,0,0,0,103,106.05c10.86-3.22,18.32-10.06,21.58-21a43.2,43.2,0,0,0-.45-26.35A29.77,29.77,0,0,0,109.56,41.2a33.23,33.23,0,0,0-15.59-4c-5.18-.06-10.36,0-15.54,0h-19V30.39q.6,0,1.2,0c11.13,0,22.27-.27,33.39.07,14.92.45,32.21,7.89,37.75,29.26A54.92,54.92,0,0,1,132.4,84.93Z"/><path class="cls-2" d="M119.35,86.65a7.53,7.53,0,0,1-6.74,6.16,21.47,21.47,0,0,1-16.4-4.2l-.48-.33c-4.24,3.52-9.22,4.79-14.6,4.77a10.45,10.45,0,0,1-5.51-1.39,7.09,7.09,0,0,1-3.46-4.89A4.74,4.74,0,0,1,73,83.08,3.24,3.24,0,0,1,78,82.67c-2-.16-3,.48-3.17,2a2.07,2.07,0,0,0,1.76,2.4,4.29,4.29,0,0,0,2.65-.44,23.81,23.81,0,0,0,3-1.9,26.61,26.61,0,0,1,4.45-2.64,8.44,8.44,0,0,1,8,.41,1.59,1.59,0,0,0,1.9,0,8.36,8.36,0,0,1,8.12-.44,26.47,26.47,0,0,1,4.32,2.57,23.59,23.59,0,0,0,3.17,2,4.13,4.13,0,0,0,2.51.43,2.06,2.06,0,0,0,1.84-2.46,2.11,2.11,0,0,0-2.35-2c-.22,0-.45.19-.69,0a3.08,3.08,0,0,1,4.51-.1A4.53,4.53,0,0,1,119.35,86.65Z"/><path d="M119.35,86.65a7.53,7.53,0,0,1-6.74,6.16,21.47,21.47,0,0,1-16.4-4.2l-.48-.33c-4.24,3.52-9.22,4.79-14.6,4.77a10.45,10.45,0,0,1-5.51-1.39,7.09,7.09,0,0,1-3.46-4.89A4.74,4.74,0,0,1,73,83.08,3.24,3.24,0,0,1,78,82.67c-2-.16-3,.48-3.17,2a2.07,2.07,0,0,0,1.76,2.4,4.29,4.29,0,0,0,2.65-.44,23.81,23.81,0,0,0,3-1.9,26.61,26.61,0,0,1,4.45-2.64,8.44,8.44,0,0,1,8,.41,1.59,1.59,0,0,0,1.9,0,8.36,8.36,0,0,1,8.12-.44,26.47,26.47,0,0,1,4.32,2.57,23.59,23.59,0,0,0,3.17,2,4.13,4.13,0,0,0,2.51.43,2.06,2.06,0,0,0,1.84-2.46,2.11,2.11,0,0,0-2.35-2c-.22,0-.45.19-.69,0a3.08,3.08,0,0,1,4.51-.1A4.53,4.53,0,0,1,119.35,86.65Z"/></svg>