<svg id="logo_Image" data-name="logo Image" xmlns="http://www.w3.org/2000/svg" viewBox="0 0 500 500"><defs><style>.cls-1{fill:#fff;}</style></defs><title>logo</title><path class="cls-1" d="M121.16,323.81c-.84,7.31,3.21,12.9,10.46,14.27,5.53,1,10.71-.24,15.76-2.61,6.42-3.16,12.25-7.26,18.08-11.3,8.5-5.83,16.95-11.6,26.46-15.7q24.44-10.8,47.57,2.44c3.93,2.26,6.84,3,11.3.29,15.46-9.33,31.69-10,48.28-2.61,9.22,4,17.49,9.63,25.69,15.28,6.13,4.22,12.13,8.5,18.85,11.71,4.76,2.26,9.69,3.45,14.93,2.56,7.73-1.25,11.95-6.9,10.94-14.63s-6.24-12.31-14-11.89c-1.31.06-2.68,1.13-4.11.18,7.44-7.91,19.15-8.27,26.82-.6,6.66,6.78,9,15.17,7.49,24.38-3.15,19.09-18.73,34-40.08,36.63-35.56,4.4-68.62-2.61-97.52-25-.89-.65-1.84-1.25-2.85-2-25.21,20.93-54.83,28.48-86.82,28.36-11.54-.06-22.71-2.14-32.76-8.26-11.06-6.72-18.08-16.24-20.58-29.08-1.6-8.15.3-15.4,4.7-21.94,7-10.35,20.1-11.48,30.21-2.44C127.88,311,122.23,314.77,121.16,323.81Z"/><path class="cls-1" d="M463.31,325.36c-14.21,68-53.93,115.6-117.5,143.36-29.73,13-60.95,20.58-92.94,25.22-53.64,7.73-107.45,6.9-161.39,3.92-13.61-.71-27.29-1.48-40.85-3.39-4.64-.65-5.71-2.55-5.41-6.6.18-2,.06-4,.06-5.94V122.05H88.57V446c0,2,.18,4,0,5.95-.42,4.22,1,6,5.59,6.12,39.07,1.07,78.14,3,117.2,3.27,26.11.12,51.86-3,76.89-10.41C352.83,431.8,397.19,391.12,416.57,326,432.09,273.8,431,221.12,413.9,169.32c-15.16-45.67-43.59-81-86.4-104a197.51,197.51,0,0,0-92.71-23.84c-30.8-.36-61.6-.3-92.4-.24v-.06H29.7V1Q33.27.86,36.84.86c66.18.06,132.42-1.6,198.55.42,88.72,2.67,191.53,46.91,224.47,174A326.44,326.44,0,0,1,463.31,325.36Z"/><path class="cls-1" d="M385.71,335.58c-3.15,19.09-18.73,34-40.08,36.63-35.56,4.4-68.62-2.61-97.52-25-.89-.65-1.84-1.25-2.85-2-25.21,20.93-54.83,28.48-86.82,28.36-11.54-.06-22.71-2.14-32.76-8.26-11.06-6.72-18.08-16.24-20.58-29.08-1.6-8.15.3-15.4,4.7-21.94,7-10.35,20.1-11.48,30.21-2.44-12.13-.95-17.78,2.85-18.85,11.89-.84,7.31,3.21,12.9,10.46,14.27,5.53,1,10.71-.24,15.76-2.61,6.42-3.16,12.25-7.26,18.08-11.3,8.5-5.83,16.95-11.6,26.46-15.7q24.44-10.8,47.57,2.44c3.93,2.26,6.84,3,11.3.29,15.46-9.33,31.69-10,48.28-2.61,9.22,4,17.49,9.63,25.69,15.28,6.13,4.22,12.13,8.5,18.85,11.71,4.76,2.26,9.69,3.45,14.93,2.56,7.73-1.25,11.95-6.9,10.94-14.63s-6.24-12.31-14-11.89c-1.31.06-2.68,1.13-4.11.18,7.44-7.91,19.15-8.27,26.82-.6C384.88,318,387.26,326.37,385.71,335.58Z"/><path class="cls-1" d="M385.71,335.58c-3.15,19.09-18.73,34-40.08,36.63-35.56,4.4-68.62-2.61-97.52-25-.89-.65-1.84-1.25-2.85-2-25.21,20.93-54.83,28.48-86.82,28.36-11.54-.06-22.71-2.14-32.76-8.26-11.06-6.72-18.08-16.24-20.58-29.08-1.6-8.15.3-15.4,4.7-21.94,7-10.35,20.1-11.48,30.21-2.44-12.13-.95-17.78,2.85-18.85,11.89-.84,7.31,3.21,12.9,10.46,14.27,5.53,1,10.71-.24,15.76-2.61,6.42-3.16,12.25-7.26,18.08-11.3,8.5-5.83,16.95-11.6,26.46-15.7q24.44-10.8,47.57,2.44c3.93,2.26,6.84,3,11.3.29,15.46-9.33,31.69-10,48.28-2.61,9.22,4,17.49,9.63,25.69,15.28,6.13,4.22,12.13,8.5,18.85,11.71,4.76,2.26,9.69,3.45,14.93,2.56,7.73-1.25,11.95-6.9,10.94-14.63s-6.24-12.31-14-11.89c-1.31.06-2.68,1.13-4.11.18,7.44-7.91,19.15-8.27,26.82-.6C384.88,318,387.26,326.37,385.71,335.58Z"/></svg>