<?xml version="1.0" standalone="no"?>
<!DOCTYPE svg PUBLIC "-//W3C//DTD SVG 20010904//EN"
 "http://www.w3.org/TR/2001/REC-SVG-20010904/DTD/svg10.dtd">
<svg version="1.0" xmlns="http://www.w3.org/2000/svg"
 width="2085.000000pt" height="2085.000000pt" viewBox="0 0 2085.000000 2085.000000"
 preserveAspectRatio="xMidYMid meet">
<metadata>
Created by potrace 1.11, written by Peter Selinger 2001-2013
</metadata>
<g transform="translate(0.000000,2085.000000) scale(0.100000,-0.100000)"
fill="#000000" stroke="none">
<path d="M5977 20833 c-1 -1 -416 -4 -922 -7 -2397 -15 -2872 -18 -3300 -21
-253 -1 -473 -3 -490 -3 l-30 -2 1 -830 c0 -457 4 -833 8 -837 4 -4 1783 -8
3954 -9 4206 -2 4741 -5 5067 -30 44 -3 105 -7 135 -9 30 -2 80 -6 110 -10 30
-3 75 -8 100 -11 25 -2 68 -7 95 -10 28 -4 64 -8 80 -9 17 -1 44 -5 60 -8 17
-4 50 -9 75 -12 25 -4 59 -8 75 -11 17 -3 41 -7 55 -9 37 -6 201 -34 230 -40
20 -4 230 -47 290 -60 49 -10 346 -88 405 -105 39 -12 77 -23 85 -25 25 -6
240 -74 320 -101 411 -141 946 -375 1278 -560 26 -15 76 -42 112 -62 36 -19
110 -62 165 -95 55 -33 109 -65 120 -71 157 -89 645 -432 785 -552 14 -12 70
-59 125 -105 55 -45 120 -101 144 -123 25 -23 77 -70 115 -105 189 -171 484
-485 677 -721 245 -299 540 -732 696 -1020 17 -30 55 -100 85 -155 154 -281
345 -706 465 -1035 89 -242 238 -715 289 -915 4 -16 8 -34 10 -40 1 -5 9 -35
18 -65 21 -76 78 -310 90 -370 3 -14 19 -92 36 -175 17 -82 36 -175 41 -205 6
-30 14 -80 19 -110 6 -30 12 -66 15 -80 2 -13 7 -40 10 -60 3 -20 7 -45 9 -55
2 -11 7 -45 11 -75 4 -30 9 -64 11 -75 3 -11 7 -38 9 -60 3 -22 7 -56 10 -75
10 -70 22 -179 30 -255 2 -22 6 -69 10 -105 3 -36 8 -78 10 -95 2 -16 7 -79
11 -140 3 -60 8 -126 10 -145 16 -175 22 -736 10 -1035 -10 -255 -32 -548 -51
-695 -2 -19 -7 -62 -10 -95 -3 -33 -8 -71 -10 -85 -2 -14 -6 -50 -10 -80 -10
-85 -15 -121 -25 -180 -5 -30 -12 -73 -15 -95 -3 -23 -7 -50 -9 -60 -2 -11 -7
-40 -11 -65 -4 -25 -9 -52 -10 -61 -2 -9 -6 -32 -9 -50 -3 -19 -8 -45 -11 -59
-3 -14 -8 -41 -11 -60 -3 -19 -17 -89 -31 -155 -14 -66 -27 -131 -30 -145 -11
-62 -106 -439 -143 -570 -22 -80 -42 -153 -45 -162 -10 -45 -140 -451 -154
-483 -5 -11 -17 -42 -26 -70 -44 -125 -174 -445 -242 -595 -65 -142 -224 -464
-253 -510 -5 -8 -39 -69 -76 -135 -37 -66 -80 -139 -96 -162 -15 -23 -28 -44
-28 -48 0 -3 -8 -18 -19 -33 -10 -15 -58 -88 -107 -162 -48 -74 -100 -151
-114 -170 -15 -19 -66 -89 -115 -155 -82 -112 -225 -291 -286 -360 -14 -16
-64 -73 -110 -125 -173 -197 -473 -487 -704 -680 -60 -51 -119 -100 -130 -109
-65 -54 -353 -264 -485 -353 -429 -290 -961 -573 -1470 -780 -93 -38 -124 -50
-128 -48 -1 0 -15 -6 -30 -14 -30 -15 -387 -146 -415 -151 -9 -2 -21 -7 -27
-10 -16 -10 -490 -155 -555 -170 -11 -2 -65 -16 -120 -31 -96 -25 -112 -29
-153 -38 -10 -2 -48 -11 -85 -20 -163 -39 -194 -46 -232 -52 -22 -3 -43 -8
-46 -10 -3 -2 -21 -6 -40 -9 -19 -3 -45 -8 -59 -10 -14 -3 -36 -8 -50 -10 -14
-3 -41 -8 -60 -11 -19 -3 -42 -7 -50 -9 -8 -2 -28 -6 -45 -9 -26 -4 -173 -28
-256 -41 -14 -3 -41 -7 -60 -9 -19 -2 -58 -7 -88 -11 -30 -4 -62 -8 -72 -10
-10 -2 -49 -7 -86 -10 -37 -4 -75 -9 -83 -10 -21 -4 -162 -18 -295 -30 -107
-10 -187 -15 -475 -31 -258 -15 -1318 -9 -2070 11 -408 11 -569 16 -685 20
-124 5 -275 10 -580 20 -130 4 -231 7 -575 20 -74 3 -205 7 -290 10 -85 3
-225 7 -310 11 -85 3 -207 7 -270 9 -766 23 -801 24 -856 40 -57 16 -113 69
-115 108 -1 12 -3 3134 -4 6937 -1 3803 -3 6920 -4 6926 -1 9 -240 12 -901 12
l-900 0 -1 -27 c0 -14 -1 -3473 -1 -7686 -1 -6875 1 -7664 15 -7690 36 -71 91
-98 234 -119 152 -22 230 -32 518 -61 22 -2 72 -7 110 -10 39 -3 93 -8 120
-10 68 -6 163 -13 270 -20 50 -3 122 -8 160 -10 39 -2 115 -7 170 -10 55 -3
138 -8 185 -10 197 -11 290 -16 375 -20 50 -3 137 -7 195 -10 118 -7 216 -11
435 -20 83 -3 184 -8 225 -10 41 -2 174 -7 295 -11 121 -3 254 -8 295 -9 139
-6 953 -18 1180 -18 243 1 929 12 1100 18 453 17 762 33 985 49 33 3 103 7
155 11 52 3 111 7 130 10 19 2 71 6 115 10 44 3 100 8 125 10 25 2 79 7 120
11 41 3 82 8 90 9 8 1 51 6 95 9 44 4 91 9 105 11 14 2 56 6 93 10 37 3 76 8
85 10 9 1 49 6 87 9 39 4 81 9 95 11 31 5 98 14 148 19 80 10 148 18 162 21 8
1 40 6 70 10 30 4 62 9 70 10 8 1 40 6 70 10 30 4 91 13 135 20 44 7 100 16
125 20 25 3 108 17 185 31 77 13 158 26 180 29 22 4 47 8 56 11 14 4 130 26
214 40 54 10 398 82 485 103 47 11 97 22 110 25 14 2 99 23 190 46 91 22 174
43 185 45 31 7 274 74 365 100 30 9 62 18 71 20 44 10 368 113 549 174 321
108 587 209 885 336 110 47 143 61 245 107 30 14 58 26 62 27 4 1 133 64 285
141 593 297 1090 610 1563 984 63 50 117 93 120 96 3 3 32 27 65 55 33 27 69
57 80 67 11 10 32 28 46 40 149 131 422 395 555 538 45 49 73 80 187 208 202
228 461 577 659 887 254 397 504 890 681 1340 77 197 165 440 182 505 1 3 20
64 43 135 80 250 172 609 236 920 29 137 37 181 41 212 2 11 5 29 9 40 3 10 8
38 11 63 4 24 8 47 10 50 2 3 6 30 10 60 4 30 8 57 10 60 2 3 6 30 10 60 4 30
8 57 10 60 2 3 6 25 9 50 3 25 8 54 10 66 2 12 7 45 11 75 3 30 8 61 10 69 2
8 9 56 15 105 6 50 13 101 15 115 5 36 17 129 20 170 4 44 15 147 20 180 2 14
7 61 10 105 4 44 9 98 11 120 4 40 8 90 20 265 36 526 35 1271 -1 1770 -11
153 -23 299 -30 370 -15 147 -26 260 -30 293 -11 87 -15 119 -20 155 -3 20 -7
53 -9 72 -10 77 -47 326 -51 340 -2 8 -6 36 -10 62 -3 25 -21 131 -40 235 -38
207 -36 196 -66 337 -12 56 -23 110 -24 121 -12 74 -122 520 -180 730 -20 72
-38 137 -40 145 -25 96 -156 501 -225 690 -179 496 -460 1113 -692 1520 -175
308 -453 741 -581 905 -4 6 -24 33 -44 60 -21 28 -41 55 -45 60 -5 6 -43 55
-85 110 -43 55 -80 102 -83 105 -3 3 -37 43 -75 90 -38 47 -71 87 -75 90 -3 3
-15 17 -27 32 -11 15 -54 64 -94 109 -547 606 -1088 1072 -1741 1501 -95 62
-182 118 -193 125 -386 234 -635 367 -1025 551 -500 236 -1216 486 -1825 638
-76 18 -226 54 -245 58 -14 3 -65 14 -115 25 -49 11 -103 22 -120 25 -16 3
-40 8 -52 11 -53 12 -69 15 -108 21 -22 3 -44 7 -50 8 -15 4 -77 16 -105 20
-14 2 -41 7 -60 10 -72 12 -98 16 -200 31 -189 28 -184 27 -295 40 -27 3 -57
7 -65 9 -8 3 -51 8 -94 11 -43 4 -86 8 -95 10 -9 1 -54 6 -101 10 -47 3 -101
8 -120 10 -215 24 -728 42 -1625 60 -525 11 -2831 25 -2838 18z"/>
<path d="M8857 8194 c-1 -1 -45 -5 -97 -9 -130 -9 -167 -14 -252 -31 -15 -3
-30 -6 -33 -6 -2 0 -37 -9 -77 -19 -40 -11 -80 -21 -88 -23 -104 -25 -349
-126 -529 -218 -247 -126 -433 -242 -896 -559 -170 -115 -354 -238 -409 -273
-376 -236 -599 -317 -849 -310 -56 1 -115 5 -132 9 -210 43 -357 161 -416 333
-42 122 -38 287 10 426 80 229 280 338 608 333 73 -1 133 1 133 5 0 12 -135
106 -210 146 -88 47 -210 87 -295 97 -79 9 -195 7 -234 -5 -17 -5 -31 -7 -31
-5 0 3 -39 -9 -87 -26 -165 -58 -302 -170 -408 -333 -112 -173 -173 -331 -201
-526 -7 -52 -8 -221 0 -265 3 -16 8 -50 11 -75 3 -25 8 -53 11 -62 3 -9 6 -25
8 -35 37 -185 140 -425 257 -600 174 -257 434 -477 749 -634 178 -88 306 -133
525 -184 99 -23 124 -27 220 -40 28 -4 61 -9 75 -11 145 -24 746 -23 1000 1
19 2 73 6 119 10 47 4 92 8 100 10 9 1 43 6 76 9 60 7 107 14 156 22 15 2 44
6 65 9 22 3 50 7 64 10 14 3 39 8 55 10 233 41 534 116 725 180 74 25 142 47
150 49 13 4 123 46 185 71 11 5 22 9 25 10 3 1 22 9 44 18 21 9 40 17 42 17 6
0 174 79 269 127 276 139 559 318 804 509 l123 96 85 -57 c46 -32 90 -64 98
-71 48 -48 443 -306 615 -401 534 -297 1189 -514 1770 -588 30 -4 63 -9 73
-11 10 -2 48 -6 85 -9 37 -4 81 -9 97 -11 198 -25 920 -25 1100 1 16 3 57 7
90 10 356 31 588 91 849 221 420 209 741 561 899 984 49 131 87 283 103 410 5
43 5 256 0 290 -26 179 -73 309 -160 450 -22 36 -43 67 -46 70 -3 3 -13 15
-21 26 -27 40 -114 130 -172 177 -68 55 -196 119 -287 143 -210 54 -480 -3
-649 -136 -100 -79 -122 -108 -83 -112 9 0 24 -2 32 -2 8 -1 39 4 68 10 71 17
193 10 272 -15 220 -69 360 -287 360 -561 0 -273 -167 -461 -460 -516 -19 -4
-82 -7 -139 -8 -200 -4 -390 57 -676 217 -75 42 -362 227 -475 307 -138 97
-569 384 -645 430 -222 134 -482 267 -645 329 -47 18 -94 37 -105 42 -37 16
-199 59 -300 80 -253 53 -576 56 -795 7 -25 -5 -55 -12 -66 -14 -127 -24 -356
-112 -514 -197 -165 -88 -257 -134 -272 -134 -7 -1 -34 -3 -59 -6 -72 -6 -136
16 -331 116 -222 113 -319 153 -483 197 -97 26 -90 25 -262 55 -43 8 -311 23
-316 19z"/>
</g>
</svg>
