<?xml version="1.0" standalone="no"?>
<!DOCTYPE svg PUBLIC "-//W3C//DTD SVG 20010904//EN"
 "http://www.w3.org/TR/2001/REC-SVG-20010904/DTD/svg10.dtd">
<svg version="1.0" xmlns="http://www.w3.org/2000/svg"
 width="744.000000pt" height="744.000000pt" viewBox="0 0 744.000000 744.000000"
 preserveAspectRatio="xMidYMid meet">
<metadata>
Created by potrace 1.14, written by Peter Selinger 2001-2017
</metadata>
<g transform="translate(0.000000,744.000000) scale(0.100000,-0.100000)"
fill="#000000" stroke="none">
<path d="M2379 5576 c-5 -5 -5 -266 0 -267 3 -1 332 -3 731 -4 788 -3 818 -4
965 -44 22 -6 42 -10 45 -10 11 0 145 -53 208 -83 56 -27 173 -99 231 -142 56
-42 206 -205 249 -271 109 -164 190 -385 218 -585 2 -19 7 -46 11 -60 9 -40
10 -380 1 -430 -5 -25 -10 -58 -12 -75 -14 -108 -72 -297 -126 -410 -43 -90
-123 -215 -146 -228 -8 -4 -14 -13 -14 -18 0 -14 -103 -115 -169 -168 -133
-104 -376 -218 -525 -247 -12 -2 -46 -9 -76 -15 -163 -35 -347 -40 -810 -24
-124 4 -257 8 -296 9 -39 2 -76 6 -82 10 -9 5 -12 283 -12 1127 0 1059 -1
1119 -17 1120 -83 5 -266 2 -270 -4 -3 -5 -6 -2008 -3 -2434 0 -58 2 -59 85
-68 382 -41 983 -39 1284 5 122 18 135 20 161 25 14 3 35 7 47 10 89 16 346
96 423 131 308 140 488 289 644 537 19 31 33 57 30 57 -3 0 3 12 13 28 65 95
145 400 160 607 12 163 8 321 -12 495 -6 52 -27 158 -47 230 -11 41 -21 82
-23 90 -38 157 -163 402 -280 545 -74 91 -250 255 -273 255 -6 0 -12 4 -14 8
-11 27 -221 138 -343 182 -113 41 -118 43 -130 45 -5 2 -28 7 -50 13 -53 14
-124 27 -270 49 -33 4 -1502 14 -1506 9z"/>
<path d="M3570 3543 c-41 -6 -150 -46 -150 -55 0 -4 -5 -8 -11 -8 -7 0 -48
-24 -93 -54 -141 -93 -164 -105 -205 -112 -78 -13 -131 36 -116 105 8 37 50
69 88 67 35 -2 34 5 -3 28 -59 35 -146 1 -181 -71 -25 -52 -28 -87 -12 -142
32 -108 99 -170 232 -215 69 -23 303 -13 396 18 22 7 61 19 88 27 26 7 47 17
47 21 0 4 6 8 13 8 7 0 44 21 82 46 39 26 75 47 80 47 6 0 30 -14 55 -30 100
-68 228 -122 330 -140 69 -12 290 -8 339 6 119 34 209 138 219 254 9 115 -76
210 -167 185 -20 -6 -42 -15 -48 -20 -16 -13 -7 -29 11 -22 22 9 65 -14 79
-43 17 -34 12 -82 -12 -106 -19 -19 -94 -33 -114 -20 -7 4 -18 8 -24 9 -7 1
-65 37 -130 80 -166 109 -228 136 -325 138 -43 1 -78 -1 -78 -4 0 -4 -6 -7
-13 -7 -7 0 -39 -12 -70 -27 l-57 -27 -55 25 c-73 34 -140 47 -195 39z"/>
</g>
</svg>
